<?xml version="1.0" encoding="UTF-8" standalone="no"?>
<!-- Created with Inkscape (http://www.inkscape.org/) -->

<svg
   version="1.1"
   id="svg1"
   width="1080"
   height="915"
   viewBox="0 0 1080 915"
   sodipodi:docname="logo-mono-black.svg"
   inkscape:version="1.4.2 (f4327f4, 2025-05-13)"
   xmlns:inkscape="http://www.inkscape.org/namespaces/inkscape"
   xmlns:sodipodi="http://sodipodi.sourceforge.net/DTD/sodipodi-0.dtd"
   xmlns="http://www.w3.org/2000/svg"
   xmlns:svg="http://www.w3.org/2000/svg">
  <sodipodi:namedview
     id="namedview1"
     pagecolor="#505050"
     bordercolor="#eeeeee"
     borderopacity="1"
     inkscape:showpageshadow="0"
     inkscape:pageopacity="0"
     inkscape:pagecheckerboard="0"
     inkscape:deskcolor="#505050"
     inkscape:zoom="0.78"
     inkscape:cx="540.38462"
     inkscape:cy="519.87179"
     inkscape:window-width="2560"
     inkscape:window-height="1369"
     inkscape:window-x="-8"
     inkscape:window-y="-8"
     inkscape:window-maximized="1"
     inkscape:current-layer="svg1" />
  <defs
     id="defs1" />
  <path
     style="fill:#000000;stroke-width:1.8555"
     d="M 33.122203,906.47029 C 25.663842,902.60932 19.210067,897.51395 15.322618,892.41722 2.7143436,875.88651 3.5426346,908.2261 4.0731237,453.19815 L 4.5533227,41.345255 8.7587972,32.810225 C 13.832474,22.513166 24.164233,11.79437 34.241242,6.3729009 L 41.663226,2.3798516 538.00822,1.9010601 C 1083.3093,1.3750692 1042.3293,0.53248793 1057.5445,12.583219 c 4.1431,3.281337 9.4474,10.244673 12.4287,16.315518 l 5.2009,10.591021 V 451.40972 c 0,393.596 -0.1503,412.35082 -3.3779,421.60606 -4.2614,12.2195 -17.3994,27.00313 -29.8214,33.55678 l -9.4771,5 -493.83727,0.47745 -493.837297,0.47746 z M 1035.5851,883.7153 c 4.7038,-3.26896 9.7796,-9.01969 12.2205,-13.84551 l 4.1748,-8.25418 V 452.21869 42.821785 l -4.2119,-6.304756 c -2.3164,-3.467618 -7.1175,-7.764647 -10.6691,-9.548985 -6.0987,-3.064093 -33.6107,-3.244382 -495.45088,-3.247128 l -488.993704,-0.0044 -8.170491,4.17486 c -9.623905,4.917577 -14.493827,11.004238 -16.816174,21.01792 -2.455744,10.588177 -2.298955,808.752474 0.161431,817.608334 2.395259,8.62471 10.042132,17.87479 17.453528,21.11268 4.673626,2.04188 90.63538,2.40269 493.95791,2.07342 L 1027.5404,889.3064 Z M 138.89656,808.56873 c -11.33335,-1.91709 -18.91567,-6.03934 -27.63556,-15.02447 -14.066136,-14.49414 -13.103873,11.50292 -12.562445,-339.43 l 0.485024,-314.42775 5.066241,-8.61806 c 6.00829,-10.2206 14.11273,-17.43856 25.54944,-22.75497 8.22448,-3.82315 10.03377,-3.87338 120.60719,-3.34666 125.29344,0.59682 123.14774,0.40219 150.10177,13.61493 11.45175,5.61362 19.14667,11.1406 29.04908,20.86484 13.06435,12.82952 547.38151,662.99018 549.58956,668.74422 0.97728,2.54679 -2.68509,2.72861 -32.91185,1.63373 -18.70637,-0.67759 -79.22557,-1.23199 -134.48724,-1.23199 H 711.27233 L 515.62984,569.76813 C 408.02651,438.41468 318.55396,329.24198 316.80201,327.16212 c -3.015,-3.57941 -3.18867,4.42759 -3.24711,149.76066 l -0.0613,153.54223 41.28476,0.2264 c 22.70662,0.12452 52.92893,0.75073 67.16076,1.39162 l 25.87583,1.16523 71.00367,87.20828 c 39.05187,47.96454 71.03504,87.8345 71.07363,88.59989 0.0927,1.84611 -440.01178,1.37018 -450.99519,-0.4877 z M 753.24568,150.74984 v -47.38476 l 17.13866,0.53351 17.13866,0.5335 21.36286,25.74218 21.36287,25.74219 0.92775,-25.74219 0.92775,-25.74218 14.3801,-0.54193 14.38008,-0.54192 v 47.39318 47.39319 l -16.23559,-0.0399 -16.23558,-0.0399 -21.06581,-25.86874 c -11.58627,-14.22783 -22.23217,-26.8367 -23.65757,-28.01975 -2.19932,-1.82521 -2.59175,2.09847 -2.59175,25.90866 v 28.05963 H 767.1619 753.24568 Z m 123.67804,43.99155 c -2.65856,-2.93772 -3.07084,-8.79132 -3.07084,-43.60414 0,-37.73694 0.22822,-40.43924 3.71098,-43.92191 3.52767,-3.52774 6.18492,-3.711 53.80937,-3.711 h 50.09838 v 12.06073 12.06072 H 941.57845 901.6853 v 23.19369 23.19369 h 39.89315 39.89316 v 12.06073 12.06071 h -50.73852 c -46.79819,0 -50.97715,-0.26352 -53.80937,-3.39322 z"
     id="path1" />
</svg>
